<!-- Generator: Adobe Illustrator 19.0.0, SVG Export Plug-In  -->
<svg version="1.1"
	 xmlns="http://www.w3.org/2000/svg" xmlns:xlink="http://www.w3.org/1999/xlink" xmlns:a="http://ns.adobe.com/AdobeSVGViewerExtensions/3.0/"
	 x="0px" y="0px" width="135.9px" height="22.3px" viewBox="0 0 135.9 22.3" style="enable-background:new 0 0 135.9 22.3;"
	 xml:space="preserve">
<style type="text/css">
	.st0{fill:#FFFFFF;}
</style>
<defs>
</defs>
<g id="XMLID_1_">
	<polygon id="XMLID_9_" class="st0" points="52.3,10.4 59.4,3.3 57.6,1.5 50.5,8.5 	"/>
	<rect id="XMLID_8_" x="44.9" class="st0" width="2.6" height="7.6"/>
	<rect id="XMLID_7_" x="53.7" y="13.2" class="st0" width="7.7" height="2.6"/>
	<path id="XMLID_6_" class="st0" d="M48.1,18.3c-0.7,0.7-1.4,0.9-2.2,0.9s-1.6-0.3-2.2-0.9c-0.7-0.7-0.9-1.4-0.9-2.2
		c0-0.9,0.4-1.7,0.9-2.3c0.7-0.7,1.4-0.9,2.2-0.9c0.9,0,1.7,0.3,2.3,0.9c0.6,0.7,0.9,1.4,0.9,2.3C49,16.9,48.7,17.6,48.1,18.3
		 M50.1,11.7c-1.2-1.2-2.6-1.8-4.3-1.8s-3.1,0.6-4.3,1.8s-1.8,2.7-1.8,4.4c0,1.7,0.6,3.2,1.8,4.3c1.2,1.2,2.6,1.9,4.3,1.9
		s3.1-0.7,4.3-1.9c1.2-1.2,1.8-2.6,1.8-4.3C51.9,14.4,51.3,12.9,50.1,11.7"/>
	<path id="XMLID_5_" class="st0" d="M7.5,6.9c-2.1,0-3.8,0.7-5.3,2.2C0.7,10.6,0,12.3,0,14.5c0,2.1,0.7,3.9,2.2,5.4
		C3.7,21.4,5.4,22,7.6,22c1.7,0,3.2-0.5,4.6-1.6c1.3-1,2.1-2.4,2.6-4h-3.1c-0.4,0.7-0.9,1.4-1.7,2c-0.7,0.5-1.6,0.7-2.5,0.7
		c-1.3,0-2.3-0.5-3.3-1.4s-1.4-2.1-1.3-3.3c0-1.3,0.5-2.4,1.3-3.3c0.9-0.9,2-1.4,3.3-1.4c0.9,0,1.7,0.3,2.5,0.7
		c0.7,0.5,1.2,1.1,1.7,2h3.1c-0.5-1.6-1.3-3-2.6-4C10.7,7.4,9.1,6.9,7.5,6.9"/>
	<path id="XMLID_4_" class="st0" d="M27.2,16.4l0.6-0.3v1.2c0,1-0.3,1.7-0.8,2.1S25.8,20,25,20c-0.4,0-0.7-0.1-1-0.4
		c-0.3-0.3-0.5-0.7-0.5-1.1c0-0.6,0.2-1,0.7-1.3c0.3-0.2,0.7-0.3,1.4-0.4L27.2,16.4z M25.9,9.9c-2,0-3.4,0.5-4.1,1.6
		C21.4,12.1,21.1,13,21,14h2.9c0.1-0.5,0.2-0.8,0.5-1c0.3-0.4,0.8-0.6,1.5-0.6s1.1,0.1,1.4,0.3c0.4,0.2,0.5,0.5,0.5,1
		c0,0.4-0.2,0.7-0.7,0.9L24.8,15c-1,0.2-1.9,0.4-2.5,0.7c-1.1,0.7-1.6,1.7-1.6,3.2c0,1,0.3,1.9,0.9,2.5c0.6,0.5,1.4,0.7,2.4,0.8
		c1.6,0,2.9-0.5,3.7-1.2v1.2h3v-8.6c0-1.4-0.5-2.4-1.5-2.9C28.4,10.1,27.2,9.8,25.9,9.9"/>
	<rect id="XMLID_3_" x="16.1" y="6.9" class="st0" width="2.9" height="15.2"/>
	<path id="XMLID_2_" class="st0" d="M37.6,10.3c-0.7,0.3-1.5,0.8-2.1,1.7v-1.5h-2.8v11.7h2.9v-5.6c0-0.9,0.1-1.6,0.4-2.1
		c0.2-0.5,0.6-0.8,1-1.1c0.5-0.4,1-0.5,1.6-0.5l0.9,0.1v-3l-0.7,0.1L37.6,10.3z"/>
</g>
<g>
	<path class="st0" d="M79.5,22.2V15c0-1.6-1-2.2-2-2.2c-0.9,0-2,0.5-2,2.1v7.2h-2.9V15c0-1.6-1-2.2-2-2.2c-0.9,0-2,0.5-2,2.2v7.1h-3
		V10.3h2.9v1.1c0.8-0.8,1.9-1.2,3-1.2c1.3,0,2.4,0.5,3.1,1.5c1-1,2.1-1.5,3.5-1.5c1.2,0,2.2,0.4,2.9,1c1,1,1.3,2.1,1.3,3.4v7.6H79.5
		z"/>
	<path class="st0" d="M92.4,22.2v-1.1c-0.8,0.8-1.9,1.2-3,1.2c-1.2,0-2.1-0.4-2.8-1c-1-1-1.2-2.1-1.2-3.4v-7.6h3v7.1
		c0,1.6,1,2.2,2,2.2s2-0.5,2-2.2v-7.1h2.9v11.8H92.4z M91.1,8.5h-2l1.5-3.9h3.1L91.1,8.5z"/>
	<path class="st0" d="M102.5,22.3c-1.9,0-3.5-0.2-5-1.7l1.9-1.9c1,1,2.2,1.1,3.2,1.1c1,0,2.1-0.3,2.1-1.2c0-0.6-0.3-1-1.2-1.1
		l-1.9-0.2C99.4,17.1,98,16.2,98,14c0-2.5,2.2-3.8,4.6-3.8c1.9,0,3.4,0.3,4.5,1.4l-1.8,1.8c-0.7-0.6-1.7-0.8-2.7-0.8
		c-1.2,0-1.7,0.5-1.7,1.1c0,0.6,0.3,0.9,1.2,1L104,15c2.3,0.2,3.5,1.5,3.5,3.5C107.5,21.1,105.3,22.3,102.5,22.3z"/>
	<path class="st0" d="M109.9,8.3V5.9h3v2.4H109.9z M109.9,22.2V10.7h3v11.5H109.9z"/>
	<path class="st0" d="M120.9,22.3c-2.4,0-5.3-1.3-5.3-6.1c0-4.8,2.9-6,5.3-6c1.6,0,2.9,0.5,3.9,1.6l-2,2c-0.6-0.7-1.1-0.9-1.9-0.9
		c-0.7,0-1.2,0.2-1.7,0.8c-0.5,0.6-0.7,1.4-0.7,2.6c0,1.2,0.2,2.1,0.7,2.6c0.4,0.5,1,0.8,1.7,0.8c0.8,0,1.3-0.3,1.9-0.9l2,2
		C123.7,21.8,122.5,22.3,120.9,22.3z"/>
	<path class="st0" d="M133,22.2v-1c-0.8,0.8-1.5,1.1-2.9,1.1c-1.3,0-2.3-0.4-3-1c-0.6-0.7-1-1.6-1-2.7c0-1.9,1.3-3.4,4.1-3.4h2.7
		v-0.6c0-1.3-0.6-1.9-2.2-1.9c-1.1,0-1.6,0.3-2.3,1l-1.9-1.8c1.2-1.3,2.3-1.7,4.2-1.7c3.3,0,5,1.4,5,4.2v7.8H133z M133,17.2h-2.2
		c-1.2,0-1.7,0.5-1.7,1.4c0,0.8,0.6,1.3,1.8,1.3c0.7,0,1.2-0.1,1.7-0.6c0.3-0.3,0.5-0.7,0.5-1.5V17.2z"/>
</g>
</svg>
