<!-- Generator: Adobe Illustrator 19.0.0, SVG Export Plug-In  -->
<svg version="1.1"
	 xmlns="http://www.w3.org/2000/svg" xmlns:xlink="http://www.w3.org/1999/xlink" xmlns:a="http://ns.adobe.com/AdobeSVGViewerExtensions/3.0/"
	 x="0px" y="0px" width="43.2px" height="36px" viewBox="0 0 43.2 36" style="enable-background:new 0 0 43.2 36;"
	 xml:space="preserve">
<style type="text/css">
	.st0{fill:#245BE7;}
</style>
<defs>
</defs>
<path class="st0" d="M21.6,36l7.2-9.6c-2-1.5-4.5-2.4-7.2-2.4s-5.2,0.9-7.2,2.4L21.6,36 M21.6,0C13.5,0,6,2.7,0,7.2L3.6,12
	c5-3.8,11.2-6,18-6s13,2.2,18,6l3.6-4.8C37.2,2.7,29.7,0,21.6,0 M21.6,12c-5.4,0-10.4,1.8-14.4,4.8l3.6,4.8c3-2.3,6.7-3.6,10.8-3.6
	s7.8,1.3,10.8,3.6l3.6-4.8C32,13.8,27,12,21.6,12z"/>
</svg>
