<!-- Generator: Adobe Illustrator 19.0.0, SVG Export Plug-In  -->
<svg version="1.1"
	 xmlns="http://www.w3.org/2000/svg" xmlns:xlink="http://www.w3.org/1999/xlink" xmlns:a="http://ns.adobe.com/AdobeSVGViewerExtensions/3.0/"
	 x="0px" y="0px" width="16px" height="19px" viewBox="0 0 16 19" style="enable-background:new 0 0 16 19;" xml:space="preserve">
<style type="text/css">
	.st0{fill:#245BE7;}
</style>
<defs>
</defs>
<path class="st0" d="M14,9H2V4h12 M12.5,15c-0.8,0-1.5-0.7-1.5-1.5c0-0.8,0.7-1.5,1.5-1.5c0.8,0,1.5,0.7,1.5,1.5
	C14,14.3,13.3,15,12.5,15 M3.5,15C2.7,15,2,14.3,2,13.5C2,12.7,2.7,12,3.5,12S5,12.7,5,13.5C5,14.3,4.3,15,3.5,15 M0,14
	c0,0.9,0.4,1.7,1,2.2V18c0,0.6,0.4,1,1,1h1c0.6,0,1-0.4,1-1v-1h8v1c0,0.6,0.4,1,1,1h1c0.6,0,1-0.4,1-1v-1.8c0.6-0.5,1-1.3,1-2.2V4
	c0-3.5-3.6-4-8-4S0,0.5,0,4V14z"/>
</svg>
