<!-- Generator: Adobe Illustrator 19.0.0, SVG Export Plug-In  -->
<svg version="1.1"
	 xmlns="http://www.w3.org/2000/svg" xmlns:xlink="http://www.w3.org/1999/xlink" xmlns:a="http://ns.adobe.com/AdobeSVGViewerExtensions/3.0/"
	 x="0px" y="0px" width="122px" height="28.6px" viewBox="0 0 122 28.6" style="enable-background:new 0 0 122 28.6;"
	 xml:space="preserve">
<style type="text/css">
	.st0{fill:#E2231A;}
</style>
<defs>
</defs>
<g id="XMLID_15_">
	<polygon id="XMLID_52_" class="st0" points="56.1,11.1 63.7,3.5 61.7,1.6 54.1,9.1 	"/>
	<rect id="XMLID_51_" x="48.1" class="st0" width="2.8" height="8.1"/>
	<rect id="XMLID_50_" x="57.5" y="14.2" class="st0" width="8.2" height="2.8"/>
	<path id="XMLID_47_" class="st0" d="M51.5,19.6c-0.7,0.7-1.5,1-2.4,1c-0.9,0-1.7-0.3-2.4-1s-1-1.5-1-2.4c0-1,0.4-1.8,1-2.5
		c0.7-0.7,1.5-1,2.4-1c1,0,1.8,0.3,2.5,1c0.6,0.7,1,1.5,1,2.5C52.5,18.1,52.2,18.9,51.5,19.6 M53.7,12.5c-1.3-1.3-2.8-1.9-4.6-1.9
		c-1.8,0-3.3,0.6-4.6,1.9c-1.3,1.3-1.9,2.9-1.9,4.7c0,1.8,0.6,3.4,1.9,4.6c1.3,1.3,2.8,2,4.6,2c1.8,0,3.3-0.7,4.6-2
		c1.3-1.3,1.9-2.8,1.9-4.6C55.6,15.4,55,13.8,53.7,12.5"/>
	<path id="XMLID_46_" class="st0" d="M8,7.4c-2.2,0-4.1,0.8-5.7,2.4C0.8,11.4,0,13.2,0,15.5c0,2.2,0.8,4.2,2.4,5.8
		c1.6,1.6,3.4,2.3,5.7,2.3c1.8,0,3.4-0.5,4.9-1.7c1.4-1.1,2.3-2.6,2.8-4.3h-3.3c-0.4,0.8-1,1.5-1.8,2.1C9.9,20.2,9,20.5,8,20.5
		c-1.4,0-2.5-0.5-3.5-1.5c-1-1-1.5-2.2-1.4-3.5c0-1.4,0.5-2.6,1.4-3.5c1-1,2.1-1.5,3.5-1.5c1,0,1.8,0.3,2.7,0.8
		c0.8,0.5,1.3,1.2,1.8,2.1h3.3c-0.5-1.7-1.4-3.2-2.8-4.3C11.5,7.9,9.8,7.4,8,7.4"/>
	<path id="XMLID_30_" class="st0" d="M29.1,17.6l0.6-0.3v1.3c0,1.1-0.3,1.8-0.9,2.2c-0.6,0.4-1.2,0.6-2,0.6c-0.4,0-0.8-0.1-1.1-0.4
		c-0.3-0.3-0.5-0.7-0.5-1.2c0-0.6,0.2-1.1,0.7-1.4c0.3-0.2,0.8-0.3,1.5-0.4L29.1,17.6z M27.8,10.6c-2.1,0-3.6,0.5-4.4,1.7
		c-0.5,0.7-0.8,1.6-0.9,2.7h3.1c0.1-0.5,0.2-0.9,0.5-1.1c0.3-0.4,0.9-0.6,1.6-0.6c0.7,0,1.2,0.1,1.5,0.3c0.4,0.2,0.5,0.5,0.5,1.1
		c0,0.4-0.2,0.8-0.7,1l-2.4,0.4c-1.1,0.2-2,0.4-2.7,0.8c-1.2,0.7-1.7,1.8-1.7,3.4c0,1.1,0.3,2,1,2.7c0.6,0.5,1.5,0.8,2.6,0.9
		c1.7,0,3.1-0.5,4-1.3v1.3H33v-9.2c0-1.5-0.5-2.6-1.6-3.1C30.4,10.8,29.2,10.5,27.8,10.6"/>
	<rect id="XMLID_27_" x="17.3" y="7.4" class="st0" width="3.1" height="16.3"/>
	<path id="XMLID_26_" class="st0" d="M40.3,11c-0.8,0.3-1.6,0.9-2.2,1.8v-1.6l-3,0v12.5h3.1v-6c0-1,0.1-1.7,0.4-2.2
		c0.2-0.5,0.6-0.9,1.1-1.2c0.5-0.4,1.1-0.5,1.7-0.5l1,0.1l0-3.2l-0.8,0.1L40.3,11z"/>
	<path id="XMLID_24_" d="M75.8,24.1c-2,0-3.8-0.2-5.5-1.8l2.1-2.1c1,1.1,2.4,1.2,3.4,1.2c1.1,0,2.3-0.4,2.3-1.3
		c0-0.6-0.3-1.1-1.4-1.2l-2.1-0.2c-2.3-0.2-3.7-1.2-3.7-3.6c0-2.7,2.3-4.1,4.9-4.1c2,0,3.7,0.4,4.9,1.5l-2,2c-0.7-0.7-1.8-0.9-3-0.9
		c-1.3,0-1.8,0.6-1.8,1.2s0.4,1,1.3,1.1l2,0.2c2.5,0.2,3.8,1.6,3.8,3.8C81.2,22.7,78.8,24.1,75.8,24.1z"/>
	<path id="XMLID_22_" d="M91.3,24v-7.7c0-1.7-1.1-2.3-2.1-2.3c-1,0-2.1,0.6-2.1,2.3V24h-3.2V6.5h3.2v5.9c0.8-0.9,1.9-1.3,3.1-1.3
		c1.3,0,2.3,0.4,3,1.1c1,1,1.3,2.2,1.3,3.6V24H91.3z"/>
	<path id="XMLID_19_" d="M106.8,22.5c-0.8,0.8-2.1,1.6-4,1.6s-3.1-0.7-4-1.6c-1.2-1.2-1.4-2.7-1.4-5c0-2.3,0.3-3.7,1.4-5
		c0.8-0.8,2.1-1.6,4-1.6s3.2,0.7,4,1.6c1.2,1.2,1.4,2.7,1.4,5C108.3,19.8,108,21.3,106.8,22.5z M104.3,14.4
		c-0.4-0.4-0.9-0.6-1.5-0.6c-0.6,0-1.1,0.2-1.5,0.6c-0.7,0.6-0.7,1.8-0.7,3.1c0,1.3,0.1,2.5,0.7,3.1c0.4,0.4,0.9,0.6,1.5,0.6
		c0.6,0,1.1-0.2,1.5-0.6c0.7-0.6,0.7-1.8,0.7-3.1C105.1,16.2,105,15.1,104.3,14.4z"/>
	<path id="XMLID_16_" d="M120.7,22.9c-0.7,0.7-1.8,1.2-3.1,1.2c-1.3,0-2.3-0.3-3.1-1.3v5.8h-3.2V11.2h3.1v1.2c0.9-1,1.8-1.4,3.2-1.4
		c1.3,0,2.4,0.4,3.1,1.2c1.2,1.3,1.3,3.2,1.3,5.4C122,19.7,121.9,21.7,120.7,22.9z M116.7,13.9c-1.9,0-2.2,1.6-2.2,3.7
		c0,2.1,0.2,3.7,2.2,3.7c1.9,0,2.2-1.6,2.2-3.7C118.8,15.5,118.6,13.9,116.7,13.9z"/>
</g>
</svg>
