<!-- Generator: Adobe Illustrator 19.0.0, SVG Export Plug-In  -->
<svg version="1.1"
	 xmlns="http://www.w3.org/2000/svg" xmlns:xlink="http://www.w3.org/1999/xlink" xmlns:a="http://ns.adobe.com/AdobeSVGViewerExtensions/3.0/"
	 x="0px" y="0px" width="67.4px" height="67.4px" viewBox="0 0 67.4 67.4" style="enable-background:new 0 0 67.4 67.4;"
	 xml:space="preserve">
<style type="text/css">
	.st0{fill:#001F65;}
</style>
<defs>
</defs>
<path id="XMLID_1_" class="st0" d="M33.7,0C15.1,0,0,15.1,0,33.7s15.1,33.7,33.7,33.7s33.7-15.1,33.7-33.7S52.3,0,33.7,0z
	 M22.8,17.4c4.7-4.7,12.2-4.7,16.9,0c1.9,1.9,3,4.2,3.4,6.8c-0.6-0.1-1.3-0.2-1.9-0.2c-0.2,0-0.4,0-0.6,0c-0.4-1.8-1.2-3.5-2.6-4.9
	c-3.7-3.7-9.7-3.7-13.4,0s-3.7,9.7,0,13.4c1.4,1.4,3,2.2,4.9,2.6c0,0.2,0,0.4,0,0.6c0,0.7,0.1,1.3,0.2,1.9c-2.6-0.4-4.9-1.5-6.8-3.4
	C18.1,29.7,18.1,22.1,22.8,17.4z M28.4,28.7c-1.6-1.6-1.6-4.1,0-5.7s4.1-1.6,5.7,0c0.7,0.7,1.1,1.7,1.2,2.6c-1.7,1-3.2,2.5-4.2,4.2
	C30.1,29.8,29.1,29.5,28.4,28.7z M32.5,44.5c0.9,0.9,0.9,2.5,0,3.4c-0.9,0.9-2.5,0.9-3.4,0s-0.9-2.5,0-3.4S31.5,43.6,32.5,44.5z
	 M35.8,51.3c-2.8,2.8-7.4,2.8-10.2,0s-2.8-7.4,0-10.2c1.2-1.2,2.6-1.9,4.2-2c0.1,0.5,0.3,1,0.5,1.5c-1.4,0.1-2.7,0.6-3.7,1.6
	c-2.2,2.2-2.2,5.8,0,8s5.8,2.2,8,0c1-1,1.6-2.3,1.6-3.7c0.5,0.2,1,0.4,1.5,0.5C37.7,48.7,37,50.1,35.8,51.3z M41.2,28.1
	c-4.2,0-7.7,3.4-7.7,7.7c0,4.2,3.4,7.7,7.7,7.7c2.1,0,4-0.8,5.4-2.3l1.4,1.4c-1.8,1.8-4.3,2.8-6.9,2.8c-5.4,0-9.7-4.4-9.7-9.7
	c0-5.4,4.4-9.7,9.7-9.7c2.6,0,5,1,6.9,2.8l-1.4,1.4C45.1,28.9,43.2,28.1,41.2,28.1z M44.4,35.8c0,1.8-1.5,3.3-3.3,3.3
	s-3.3-1.5-3.3-3.3s1.5-3.3,3.3-3.3C43,32.5,44.4,34,44.4,35.8z"/>
</svg>
