<!-- Generator: Adobe Illustrator 19.0.0, SVG Export Plug-In  -->
<svg version="1.1"
	 xmlns="http://www.w3.org/2000/svg" xmlns:xlink="http://www.w3.org/1999/xlink" xmlns:a="http://ns.adobe.com/AdobeSVGViewerExtensions/3.0/"
	 x="0px" y="0px" width="130.3px" height="130.3px" viewBox="0 0 130.3 130.3" style="enable-background:new 0 0 130.3 130.3;"
	 xml:space="preserve">
<style type="text/css">
	.st0{fill:#FFEC15;}
	.st1{fill:#001F65;}
</style>
<defs>
</defs>
<g id="XMLID_15_">
	<circle id="XMLID_45_" class="st0" cx="65.1" cy="65.1" r="65.1"/>
	<g id="XMLID_16_">
		<path id="XMLID_43_" class="st1" d="M35.4,43v11.7L31.7,55V43.3l-4.1,0.4v-3.5l12-1.1v3.5L35.4,43z"/>
		<path id="XMLID_41_" class="st1" d="M51.2,53.3v-6l-5.9,0.5v6l-3.7,0.3V38.9l3.7-0.3v5.7l5.9-0.5V38l3.7-0.3V53L51.2,53.3z"/>
		<path id="XMLID_39_" class="st1" d="M61.7,40.7v2.3l6.3-0.6v3.5l-6.3,0.6v2.4l6.8-0.6v3.5L58,52.7V37.5l10.5-0.9v3.5L61.7,40.7z"
			/>
		<path id="XMLID_37_" class="st1" d="M25.5,73.1c0,1.2-1,2.2-2.2,2.3c-1.3,0.1-2.2-0.7-2.2-1.9c0-1.2,1-2.2,2.2-2.3
			C24.5,71,25.5,71.8,25.5,73.1z"/>
		<path id="XMLID_35_" class="st1" d="M43.6,63.9l-3.9,0.3c-0.6-1.5-2-2.4-3.8-2.2c-2.4,0.2-4.2,2.2-4.2,4.8c0,2.6,1.8,4.2,4.2,4
			c1.8-0.2,3.2-1.3,3.8-2.9l3.9-0.3c-0.7,3.6-3.8,6.4-7.7,6.8c-4.5,0.4-8-2.7-8-7.2c0-4.5,3.5-8.2,8-8.6
			C39.7,58.1,42.8,60.4,43.6,63.9z"/>
		<path id="XMLID_33_" class="st1" d="M49.5,61.1v2.2l7.2-0.6v9.5l-10.9,1v-3.5l7.2-0.6v-2.5l-7.2,0.6v-9.2l10.9-1v3.5L49.5,61.1z"
			/>
		<path id="XMLID_31_" class="st1" d="M63.4,59.9v2.2l7.2-0.6V71l-10.9,1v-3.5l7.2-0.6v-2.5l-7.2,0.6v-9.2l10.9-1v3.5L63.4,59.9z"/>
		<path id="XMLID_29_" class="st1" d="M43.6,83.3l-3.9,0.3c-0.6-1.5-2-2.4-3.8-2.2c-2.4,0.2-4.2,2.2-4.2,4.8c0,2.5,1.8,4.2,4.2,4
			c1.8-0.2,3.2-1.3,3.8-2.9l3.9-0.3c-0.7,3.6-3.8,6.4-7.7,6.8c-4.5,0.4-8-2.7-8-7.2c0-4.5,3.5-8.2,8-8.6
			C39.8,77.5,42.9,79.8,43.6,83.3z"/>
		<path id="XMLID_27_" class="st1" d="M55.8,88.1v3.5l-10,0.9V77.3l3.7-0.3v11.7L55.8,88.1z"/>
		<path id="XMLID_25_" class="st1" d="M57.9,91.5V76.2l3.7-0.3v11.7l5.2-0.5V75.4l3.7-0.3v15.3L57.9,91.5z"/>
		<path id="XMLID_21_" class="st1" d="M86.4,79.7V89l-12.8,1.1V74.8l10.9-1v6L86.4,79.7z M77.3,80.5l3.6-0.3v-2.5l-3.6,0.3V80.5z
			 M77.3,86.3l5.4-0.5v-2.6l-5.4,0.5V86.3z"/>
		<path id="XMLID_19_" class="st1" d="M95.4,74.9v14.7l2.3-0.2V93l-6,0.5v-9.2l-2.5,0.2V81l2.5-0.2v-9.1l6-0.5v3.5L95.4,74.9z"/>
		<path id="XMLID_17_" class="st1" d="M109.3,79.3v3.5l-2.5,0.2v9.2l-6,0.5v-3.5l2.3-0.2V74.3l-2.3,0.2v-3.5l6-0.5v9.1L109.3,79.3z"
			/>
	</g>
</g>
</svg>
